<!--?xml version="1.0" encoding="utf-8"?-->
<!-- Generator: Adobe Illustrator 24.1.3, SVG Export Plug-In . SVG Version: 6.00 Build 0)  -->
<svg version="1.1" xmlns="http://www.w3.org/2000/svg" xmlns:xlink="http://www.w3.org/1999/xlink" x="0px" y="0px" viewBox="0 0 1366 768" style="" xml:space="preserve" class="">
<style type="text/css">
	.st0{fill:none;stroke:#000000;stroke-width:10;stroke-linecap:round;stroke-linejoin:round;stroke-miterlimit:10;}
	.st1{fill:#FCCF0A;}
	.st2{fill:#FFFFFF;stroke:#000000;stroke-width:15;stroke-linecap:round;stroke-linejoin:round;stroke-miterlimit:10;}
	.st3{fill:none;stroke:#000000;stroke-width:15;stroke-linecap:round;stroke-linejoin:round;stroke-miterlimit:10;}
	.st4{display:none;fill:none;stroke:#000000;stroke-width:5;stroke-linecap:round;stroke-linejoin:round;stroke-miterlimit:10;}
</style>
<g id="图层_3">
	<path class="st0 kajCyTFK_0" d="M1042,379.3c-0.3,63.1-19.3,121.8-51.8,170.7"></path>
	<path class="st0 kajCyTFK_1" d="M936.2,611.7C881.4,659.8,809.6,689,731,689c-171.8,0-311-139.2-311-311c0-66.8,21.1-128.7,56.9-179.4"></path>
	<path class="st0 kajCyTFK_2" d="M476.9,198.6c3-4.2,6-8.3,9.2-12.3"></path>
	<path class="st0 kajCyTFK_3" d="M534.2,137.2C587.8,93.3,656.3,67,731,67c171.2,0,310.1,138.3,311,309.3"></path>
</g>
<g id="图层_2">
	<path class="st1 kajCyTFK_4" d="M791.4,213.9A38.9,40.3 0,1,1 869.1999999999999,213.9A38.9,40.3 0,1,1 791.4,213.9"></path>
</g>
<g id="图层_1">
	<path class="st2 kajCyTFK_5" d="M506.4,167.8L702.2,167.8"></path>
	<path class="st2 kajCyTFK_6" d="M604.3,167.8L604.3,588.2"></path>
	<path class="st3 kajCyTFK_7" d="M549.6,199.5c0,0,5.8,253.4-43.2,305.2"></path>
	<path class="st2 kajCyTFK_8" d="M692.6,297.4L692.6,582.5"></path>
	<path class="st3 kajCyTFK_9" d="M651.8,232.6v146.9c0,0,0,17.3,14.4,17.3s51.8,0,51.8,0"></path>
	<path class="st3 kajCyTFK_10" d="M821.2,171c19,2.6,33.7,19.5,33.7,40c0,22.3-17.4,40.3-38.9,40.3c-21.5,0-38.9-18-38.9-40.3
		c0-6.9,1.7-13.4,4.6-19.1"></path>
	<path class="st2 kajCyTFK_11" d="M762.7,349.2"></path>
	<path class="st3 kajCyTFK_12" d="M958.5,490.3c0,0,0,43.2,0,66.2s-14.4,25.9-14.4,25.9s-48.6,2.9-55.8,0c-7.2-2.9-7.2-23-7.2-23V308.9
		c0-17.3-12.6-17.3-12.6-17.3h-77"></path>
	<path class="st3 kajCyTFK_13" d="M846.2,588.2"></path>
	<path class="st3 kajCyTFK_14" d="M759.8,323.3v237c0,0,0,27.9-25,27.9s-90.1,0-90.1,0"></path>
	<path class="st4 kajCyTFK_15" d="M311.5,296A108.5,108.5 0,1,1 528.5,296A108.5,108.5 0,1,1 311.5,296"></path>
</g>
<style data-made-with="vivus-instant">.kajCyTFK_0{stroke-dasharray:181 183;stroke-dashoffset:182;animation:kajCyTFK_draw 103ms linear 0ms forwards;}.kajCyTFK_1{stroke-dasharray:904 906;stroke-dashoffset:905;animation:kajCyTFK_draw 513ms linear 103ms forwards;}.kajCyTFK_2{stroke-dasharray:16 18;stroke-dashoffset:17;animation:kajCyTFK_draw 9ms linear 616ms forwards;}.kajCyTFK_3{stroke-dasharray:701 703;stroke-dashoffset:702;animation:kajCyTFK_draw 397ms linear 625ms forwards;}.kajCyTFK_4{stroke-dasharray:249 251;stroke-dashoffset:250;animation:kajCyTFK_draw 141ms linear 1023ms forwards;}.kajCyTFK_5{stroke-dasharray:196 198;stroke-dashoffset:197;animation:kajCyTFK_draw 111ms linear 1165ms forwards;}.kajCyTFK_6{stroke-dasharray:421 423;stroke-dashoffset:422;animation:kajCyTFK_draw 239ms linear 1277ms forwards;}.kajCyTFK_7{stroke-dasharray:313 315;stroke-dashoffset:314;animation:kajCyTFK_draw 178ms linear 1516ms forwards;}.kajCyTFK_8{stroke-dasharray:286 288;stroke-dashoffset:287;animation:kajCyTFK_draw 162ms linear 1694ms forwards;}.kajCyTFK_9{stroke-dasharray:224 226;stroke-dashoffset:225;animation:kajCyTFK_draw 127ms linear 1857ms forwards;}.kajCyTFK_10{stroke-dasharray:202 204;stroke-dashoffset:203;animation:kajCyTFK_draw 115ms linear 1984ms forwards;}.kajCyTFK_11{stroke-dasharray:0 2;stroke-dashoffset:1;animation:kajCyTFK_draw 0ms linear 2099ms forwards;}.kajCyTFK_12{stroke-dasharray:531 533;stroke-dashoffset:532;animation:kajCyTFK_draw 301ms linear 2100ms forwards;}.kajCyTFK_13{stroke-dasharray:0 2;stroke-dashoffset:1;animation:kajCyTFK_draw 0ms linear 2401ms forwards;}.kajCyTFK_14{stroke-dasharray:370 372;stroke-dashoffset:371;animation:kajCyTFK_draw 210ms linear 2402ms forwards;}.kajCyTFK_15{stroke-dasharray:682 684;stroke-dashoffset:683;animation:kajCyTFK_draw 387ms linear 2612ms forwards;}@keyframes kajCyTFK_draw{100%{stroke-dashoffset:0;}}@keyframes kajCyTFK_fade{0%{stroke-opacity:1;}94.44444444444444%{stroke-opacity:1;}100%{stroke-opacity:0;}}</style></svg>
